<mxfile host="app.diagrams.net" agent="Mozilla/5.0 (Macintosh; Intel Mac OS X 10_15_7) AppleWebKit/537.36 (KHTML, like Gecko) Chrome/131.0.0.0 Safari/537.36" version="26.0.4">
  <diagram name="Page-1" id="E7hqxANdw7iOJaslMGMK">
    <mxGraphModel dx="984" dy="659" grid="1" gridSize="10" guides="1" tooltips="1" connect="1" arrows="1" fold="1" page="1" pageScale="1" pageWidth="827" pageHeight="1169" math="0" shadow="0">
      <root>
        <mxCell id="0" />
        <mxCell id="1" parent="0" />
        <mxCell id="nxU4Bh9ZfVaYZAL23d5n-1" value="" style="rounded=0;whiteSpace=wrap;html=1;" vertex="1" parent="1">
          <mxGeometry x="180" y="270" width="70" height="50" as="geometry" />
        </mxCell>
        <mxCell id="nxU4Bh9ZfVaYZAL23d5n-2" value="CRM" style="text;html=1;align=center;verticalAlign=middle;whiteSpace=wrap;rounded=0;" vertex="1" parent="1">
          <mxGeometry x="185" y="280" width="60" height="30" as="geometry" />
        </mxCell>
        <mxCell id="nxU4Bh9ZfVaYZAL23d5n-3" value="" style="rounded=0;whiteSpace=wrap;html=1;" vertex="1" parent="1">
          <mxGeometry x="20" y="120" width="70" height="50" as="geometry" />
        </mxCell>
        <mxCell id="nxU4Bh9ZfVaYZAL23d5n-4" value="" style="rounded=0;whiteSpace=wrap;html=1;" vertex="1" parent="1">
          <mxGeometry x="20" y="220" width="70" height="50" as="geometry" />
        </mxCell>
        <mxCell id="nxU4Bh9ZfVaYZAL23d5n-5" value="" style="rounded=0;whiteSpace=wrap;html=1;" vertex="1" parent="1">
          <mxGeometry x="20" y="320" width="70" height="50" as="geometry" />
        </mxCell>
        <mxCell id="nxU4Bh9ZfVaYZAL23d5n-6" value="" style="rounded=0;whiteSpace=wrap;html=1;" vertex="1" parent="1">
          <mxGeometry x="120" y="400" width="70" height="50" as="geometry" />
        </mxCell>
        <mxCell id="nxU4Bh9ZfVaYZAL23d5n-7" value="" style="rounded=0;whiteSpace=wrap;html=1;" vertex="1" parent="1">
          <mxGeometry x="120" y="40" width="70" height="50" as="geometry" />
        </mxCell>
        <mxCell id="nxU4Bh9ZfVaYZAL23d5n-8" value="phone and contacts" style="text;html=1;align=center;verticalAlign=middle;whiteSpace=wrap;rounded=0;" vertex="1" parent="1">
          <mxGeometry x="125" y="50" width="60" height="30" as="geometry" />
        </mxCell>
        <mxCell id="nxU4Bh9ZfVaYZAL23d5n-9" value="email" style="text;html=1;align=center;verticalAlign=middle;whiteSpace=wrap;rounded=0;" vertex="1" parent="1">
          <mxGeometry x="25" y="130" width="60" height="30" as="geometry" />
        </mxCell>
        <mxCell id="nxU4Bh9ZfVaYZAL23d5n-10" value="purchase history" style="text;html=1;align=center;verticalAlign=middle;whiteSpace=wrap;rounded=0;" vertex="1" parent="1">
          <mxGeometry x="25" y="230" width="60" height="30" as="geometry" />
        </mxCell>
        <mxCell id="nxU4Bh9ZfVaYZAL23d5n-11" value="website activity" style="text;html=1;align=center;verticalAlign=middle;whiteSpace=wrap;rounded=0;" vertex="1" parent="1">
          <mxGeometry x="25" y="330" width="60" height="30" as="geometry" />
        </mxCell>
        <mxCell id="nxU4Bh9ZfVaYZAL23d5n-12" value="social media activity" style="text;html=1;align=center;verticalAlign=middle;whiteSpace=wrap;rounded=0;" vertex="1" parent="1">
          <mxGeometry x="125" y="410" width="60" height="30" as="geometry" />
        </mxCell>
        <mxCell id="nxU4Bh9ZfVaYZAL23d5n-13" value="" style="endArrow=classic;html=1;rounded=0;exitX=1;exitY=0.5;exitDx=0;exitDy=0;entryX=0;entryY=0;entryDx=0;entryDy=0;" edge="1" parent="1" source="nxU4Bh9ZfVaYZAL23d5n-3" target="nxU4Bh9ZfVaYZAL23d5n-1">
          <mxGeometry width="50" height="50" relative="1" as="geometry">
            <mxPoint x="230" y="370" as="sourcePoint" />
            <mxPoint x="280" y="320" as="targetPoint" />
          </mxGeometry>
        </mxCell>
        <mxCell id="nxU4Bh9ZfVaYZAL23d5n-14" value="" style="endArrow=classic;html=1;rounded=0;exitX=0.657;exitY=1.04;exitDx=0;exitDy=0;exitPerimeter=0;entryX=0.5;entryY=0;entryDx=0;entryDy=0;" edge="1" parent="1" source="nxU4Bh9ZfVaYZAL23d5n-7" target="nxU4Bh9ZfVaYZAL23d5n-1">
          <mxGeometry width="50" height="50" relative="1" as="geometry">
            <mxPoint x="230" y="370" as="sourcePoint" />
            <mxPoint x="280" y="320" as="targetPoint" />
          </mxGeometry>
        </mxCell>
        <mxCell id="nxU4Bh9ZfVaYZAL23d5n-15" value="" style="endArrow=classic;html=1;rounded=0;exitX=1;exitY=0.5;exitDx=0;exitDy=0;entryX=0;entryY=0.5;entryDx=0;entryDy=0;" edge="1" parent="1" source="nxU4Bh9ZfVaYZAL23d5n-4" target="nxU4Bh9ZfVaYZAL23d5n-1">
          <mxGeometry width="50" height="50" relative="1" as="geometry">
            <mxPoint x="230" y="370" as="sourcePoint" />
            <mxPoint x="280" y="320" as="targetPoint" />
          </mxGeometry>
        </mxCell>
        <mxCell id="nxU4Bh9ZfVaYZAL23d5n-16" value="" style="endArrow=classic;html=1;rounded=0;exitX=1;exitY=0.5;exitDx=0;exitDy=0;entryX=0.157;entryY=1.04;entryDx=0;entryDy=0;entryPerimeter=0;" edge="1" parent="1" source="nxU4Bh9ZfVaYZAL23d5n-5" target="nxU4Bh9ZfVaYZAL23d5n-1">
          <mxGeometry width="50" height="50" relative="1" as="geometry">
            <mxPoint x="230" y="370" as="sourcePoint" />
            <mxPoint x="280" y="320" as="targetPoint" />
          </mxGeometry>
        </mxCell>
        <mxCell id="nxU4Bh9ZfVaYZAL23d5n-17" value="" style="endArrow=classic;html=1;rounded=0;exitX=0.671;exitY=-0.06;exitDx=0;exitDy=0;exitPerimeter=0;entryX=0.5;entryY=1;entryDx=0;entryDy=0;" edge="1" parent="1" source="nxU4Bh9ZfVaYZAL23d5n-6" target="nxU4Bh9ZfVaYZAL23d5n-1">
          <mxGeometry width="50" height="50" relative="1" as="geometry">
            <mxPoint x="230" y="370" as="sourcePoint" />
            <mxPoint x="280" y="320" as="targetPoint" />
          </mxGeometry>
        </mxCell>
        <mxCell id="nxU4Bh9ZfVaYZAL23d5n-18" value="" style="endArrow=classic;html=1;rounded=0;" edge="1" parent="1">
          <mxGeometry width="50" height="50" relative="1" as="geometry">
            <mxPoint x="250" y="300" as="sourcePoint" />
            <mxPoint x="380" y="300" as="targetPoint" />
          </mxGeometry>
        </mxCell>
        <mxCell id="nxU4Bh9ZfVaYZAL23d5n-19" value="" style="rounded=0;whiteSpace=wrap;html=1;" vertex="1" parent="1">
          <mxGeometry x="380" y="270" width="80" height="55" as="geometry" />
        </mxCell>
        <mxCell id="nxU4Bh9ZfVaYZAL23d5n-20" value="single database" style="text;html=1;align=center;verticalAlign=middle;whiteSpace=wrap;rounded=0;" vertex="1" parent="1">
          <mxGeometry x="390" y="280" width="60" height="30" as="geometry" />
        </mxCell>
        <mxCell id="nxU4Bh9ZfVaYZAL23d5n-23" value="" style="endArrow=classic;html=1;rounded=0;" edge="1" parent="1">
          <mxGeometry width="50" height="50" relative="1" as="geometry">
            <mxPoint x="460" y="300" as="sourcePoint" />
            <mxPoint x="560" y="300" as="targetPoint" />
          </mxGeometry>
        </mxCell>
        <mxCell id="nxU4Bh9ZfVaYZAL23d5n-24" value="next module&lt;div&gt;(personalized messages)&lt;/div&gt;" style="rounded=0;whiteSpace=wrap;html=1;" vertex="1" parent="1">
          <mxGeometry x="560" y="270" width="120" height="60" as="geometry" />
        </mxCell>
      </root>
    </mxGraphModel>
  </diagram>
</mxfile>
